<?xml version="1.0" encoding="utf-8"?>
<!-- Generator: Adobe Illustrator 27.4.0, SVG Export Plug-In . SVG Version: 6.00 Build 0)  -->
<svg version="1.1" id="Camada_1" xmlns="http://www.w3.org/2000/svg" xmlns:xlink="http://www.w3.org/1999/xlink" x="0px" y="0px"
	 viewBox="0 0 2000 2000" style="enable-background:new 0 0 2000 2000;" xml:space="preserve">
<style type="text/css">
	.st0{fill-rule:evenodd;clip-rule:evenodd;fill:#FFFFFF;}
	.st1{fill:#FFFFFF;}
</style>
<g>
	<path class="st0" d="M700.01,949.97c-0.14-11.3-1.21-20.62-3.23-27.96c-2.02-7.34-4.15-13.18-6.41-17.53
		c-7.86-15.04-18.25-25.4-31.17-31.05c-12.92-5.66-27.45-8.79-43.6-9.39c-4.64-0.37-9.33-0.59-14.07-0.67
		c-4.74-0.08-9.43-0.11-14.07-0.1H400.91v272.07h97.13v-95.97h73.62c15.25,0.35,31.29-0.45,48.13-2.41
		c16.84-1.96,32.01-7.19,45.53-15.69c10.86-7.55,18.77-15.99,23.73-25.33c4.95-9.34,8.07-18.18,9.34-26.54
		C699.65,961.05,700.19,954.57,700.01,949.97z M597.53,967.67c-3.27,4.35-7.91,7.32-13.92,8.92c-2.58,0.74-5.52,1.19-8.82,1.35
		c-3.3,0.16-7.68,0.22-13.15,0.19h-63.6v-53.24h70.92c5.9-0.19,11.54,0.48,16.91,2.03c5.37,1.54,9.76,5.11,13.15,10.71
		c0.65,1.16,1.37,2.89,2.17,5.21c0.79,2.32,1.23,5.21,1.3,8.68C602.45,957.94,600.8,963.32,597.53,967.67z"/>
	<polygon class="st0" points="1012.34,1135.34 1012.34,1073.72 819.23,1073.72 819.23,1030.12 994.61,1030.12 994.61,968.88 
		819.23,968.88 819.23,924.12 1008.87,924.12 1008.87,863.27 721.72,863.27 721.72,1135.34 	"/>
	<polygon class="st0" points="1350.1,1135.34 1350.1,863.27 1254.13,863.27 1254.13,1006.63 1124.24,863.27 1043.68,863.27 
		1043.68,1135.34 1140.04,1135.34 1140.04,989.67 1269.16,1135.34 	"/>
	<path class="st0" d="M1675.27,1047.5c-0.32-12.64-2.47-22.73-6.46-30.26c-3.98-7.53-7.87-13-11.66-16.39
		c-4.95-5.54-11.72-10.46-20.33-14.75c-8.61-4.29-20.59-8.24-35.94-11.86c-16.4-3.67-32.12-7-47.17-9.97
		c-15.04-2.97-28.14-5.92-39.29-8.85c-11.15-2.93-19.07-6.17-23.78-9.71c-2.62-2.18-4.32-4.38-5.11-6.6
		c-0.79-2.23-1.14-4.14-1.06-5.74c-0.08-1.46,0.27-3.45,1.06-5.98c0.79-2.52,2.49-4.9,5.11-7.13c4.06-3.15,8.83-5.38,14.29-6.68
		c5.46-1.31,10.37-2.08,14.72-2.31s6.89-0.32,7.61-0.26c12.27,0.04,22.03,1.5,29.29,4.39c7.26,2.88,12.4,6.95,15.42,12.19
		c0.75,1.36,1.37,2.79,1.88,4.29c0.51,1.5,1.04,3.03,1.59,4.58l95.2-5.4c-0.55-6.33-2.83-14.58-6.84-24.76
		c-4.01-10.18-12.27-20.16-24.76-29.95c-8.09-6.16-16.96-10.78-26.59-13.86c-11.99-3.82-25.98-6.58-41.96-8.28
		c-15.99-1.7-30.26-2.54-42.83-2.5c-34.63,0.19-62.01,4.53-82.15,13c-20.13,8.47-34.5,19.93-43.12,34.37
		c-3.87,5.98-6.83,12.32-8.86,19.03c-2.04,6.7-3.07,13.72-3.08,21.06c-0.18,3.65,0.37,8.88,1.64,15.71s4.32,14.19,9.15,22.07
		c7.05,10.36,15.59,18.17,25.63,23.42c10.04,5.25,20.89,9.4,32.57,12.43c10.62,2.83,21.28,5.27,31.99,7.32
		c10.71,2.06,21.38,4.11,31.99,6.17c9.59,1.74,18.07,3.37,25.44,4.92c7.37,1.54,12.77,2.99,16.19,4.34
		c6.21,2.8,10.37,5.98,12.48,9.54c2.11,3.57,3.09,6.94,2.94,10.12c-0.14,4.85-1.69,9.13-4.67,12.82c-2.98,3.69-6.56,6.62-10.74,8.77
		c-4.74,2.26-9.91,3.81-15.51,4.63s-10.97,1.2-16.09,1.16c-12.56-0.06-22.61-1.19-30.16-3.37c-7.55-2.18-13.55-5.04-18.02-8.58
		c-4.68-3.53-7.84-6.97-9.49-10.31c-1.65-3.34-2.59-6.2-2.84-8.58l-95.97,2.31c0.43,5.26,1.98,12.57,4.63,21.92
		c2.65,9.35,8.43,19.26,17.34,29.72c9.78,11.51,24.33,20.64,43.65,27.39c19.32,6.75,44.85,10.2,76.6,10.35
		c36.87-0.06,66.33-3.88,88.36-11.46c22.03-7.58,38.58-18.52,49.62-32.83c5.81-7.23,10.28-15.3,13.39-24.23
		S1675.24,1056.86,1675.27,1047.5z"/>
	<polygon class="st0" points="2000,1135.34 2000,1073.72 1806.9,1073.72 1806.9,1030.12 1982.27,1030.12 1982.27,968.88 
		1806.9,968.88 1806.9,924.12 1996.53,924.12 1996.53,863.27 1709.38,863.27 1709.38,1135.34 	"/>
	<g>
		<polygon class="st1" points="17.86,1141.13 106.76,1141.13 141.79,1087.25 173.38,1095.91 238.78,992.95 260.33,998.34 
			349.23,866.33 273.8,866.33 234.52,922.61 211.71,917.01 134.73,1020.59 112.15,1014.5 		"/>
		<g>
			<g>
				<polygon class="st1" points="248.1,1020.52 204.79,1087.47 253.74,1141.39 358.79,1141.39 				"/>
				<polygon class="st1" points="170.16,938.02 105.05,866.52 0,866.52 122.69,1000.43 				"/>
			</g>
		</g>
	</g>
	<path class="st1" d="M12.47,1149.21"/>
	<path class="st1" d="M122.69,1000.43"/>
	<path class="st1" d="M341.15,874.41"/>
	<path class="st1" d="M204.79,1087.47"/>
</g>
</svg>
